<mxfile host="app.diagrams.net" modified="2021-10-12T12:00:36.514Z" agent="5.0 (X11; Linux x86_64) AppleWebKit/537.36 (KHTML, like Gecko) Chrome/94.0.4606.71 Safari/537.36" etag="oPRD5iBlVlcSRv6jI8gz" version="15.4.3" type="github">
  <diagram id="pWWHFF6fxuTsrA4VLEa-" name="Page-1">
    <mxGraphModel dx="1485" dy="587" grid="1" gridSize="10" guides="1" tooltips="1" connect="1" arrows="1" fold="1" page="1" pageScale="1" pageWidth="827" pageHeight="1169" math="0" shadow="0">
      <root>
        <mxCell id="0" />
        <mxCell id="1" parent="0" />
        <mxCell id="NTC3dTQ25wEKyzyMrCL0-1" value="Outcome" style="swimlane;fontStyle=1;align=center;verticalAlign=middle;childLayout=stackLayout;horizontal=1;startSize=29;horizontalStack=0;resizeParent=1;resizeParentMax=0;resizeLast=0;collapsible=0;marginBottom=0;html=1;" vertex="1" parent="1">
          <mxGeometry x="140" y="70" width="140" height="130" as="geometry" />
        </mxCell>
        <mxCell id="NTC3dTQ25wEKyzyMrCL0-2" value="choice_id&lt;br&gt;career_id" style="text;html=1;strokeColor=none;fillColor=none;align=center;verticalAlign=middle;spacingLeft=4;spacingRight=4;overflow=hidden;rotatable=0;points=[[0,0.5],[1,0.5]];portConstraint=eastwest;" vertex="1" parent="NTC3dTQ25wEKyzyMrCL0-1">
          <mxGeometry y="29" width="140" height="101" as="geometry" />
        </mxCell>
        <mxCell id="NTC3dTQ25wEKyzyMrCL0-4" value="Career" style="swimlane;fontStyle=1;align=center;verticalAlign=middle;childLayout=stackLayout;horizontal=1;startSize=29;horizontalStack=0;resizeParent=1;resizeParentMax=0;resizeLast=0;collapsible=0;marginBottom=0;html=1;" vertex="1" parent="1">
          <mxGeometry x="414" y="70" width="140" height="130" as="geometry" />
        </mxCell>
        <mxCell id="NTC3dTQ25wEKyzyMrCL0-5" value="name" style="text;html=1;strokeColor=none;fillColor=none;align=center;verticalAlign=middle;spacingLeft=4;spacingRight=4;overflow=hidden;rotatable=0;points=[[0,0.5],[1,0.5]];portConstraint=eastwest;" vertex="1" parent="NTC3dTQ25wEKyzyMrCL0-4">
          <mxGeometry y="29" width="140" height="101" as="geometry" />
        </mxCell>
        <mxCell id="NTC3dTQ25wEKyzyMrCL0-7" value="Survey" style="swimlane;fontStyle=1;align=center;verticalAlign=middle;childLayout=stackLayout;horizontal=1;startSize=29;horizontalStack=0;resizeParent=1;resizeParentMax=0;resizeLast=0;collapsible=0;marginBottom=0;html=1;" vertex="1" parent="1">
          <mxGeometry x="140" y="230" width="140" height="130" as="geometry" />
        </mxCell>
        <mxCell id="NTC3dTQ25wEKyzyMrCL0-8" value="username&lt;br&gt;career_id" style="text;html=1;strokeColor=none;fillColor=none;align=center;verticalAlign=middle;spacingLeft=4;spacingRight=4;overflow=hidden;rotatable=0;points=[[0,0.5],[1,0.5]];portConstraint=eastwest;" vertex="1" parent="NTC3dTQ25wEKyzyMrCL0-7">
          <mxGeometry y="29" width="140" height="101" as="geometry" />
        </mxCell>
        <mxCell id="NTC3dTQ25wEKyzyMrCL0-10" value="Choice" style="swimlane;fontStyle=1;align=center;verticalAlign=middle;childLayout=stackLayout;horizontal=1;startSize=29;horizontalStack=0;resizeParent=1;resizeParentMax=0;resizeLast=0;collapsible=0;marginBottom=0;html=1;" vertex="1" parent="1">
          <mxGeometry x="414" y="230" width="140" height="130" as="geometry" />
        </mxCell>
        <mxCell id="NTC3dTQ25wEKyzyMrCL0-11" value="text&lt;br&gt;question_id" style="text;html=1;strokeColor=none;fillColor=none;align=center;verticalAlign=middle;spacingLeft=4;spacingRight=4;overflow=hidden;rotatable=0;points=[[0,0.5],[1,0.5]];portConstraint=eastwest;" vertex="1" parent="NTC3dTQ25wEKyzyMrCL0-10">
          <mxGeometry y="29" width="140" height="101" as="geometry" />
        </mxCell>
        <mxCell id="NTC3dTQ25wEKyzyMrCL0-25" value="Response" style="swimlane;fontStyle=1;align=center;verticalAlign=middle;childLayout=stackLayout;horizontal=1;startSize=29;horizontalStack=0;resizeParent=1;resizeParentMax=0;resizeLast=0;collapsible=0;marginBottom=0;html=1;" vertex="1" parent="1">
          <mxGeometry x="140" y="400" width="140" height="120" as="geometry" />
        </mxCell>
        <mxCell id="NTC3dTQ25wEKyzyMrCL0-26" value="question_id&lt;br&gt;choice_id&lt;br&gt;survey_id" style="text;html=1;strokeColor=none;fillColor=none;align=center;verticalAlign=middle;spacingLeft=4;spacingRight=4;overflow=hidden;rotatable=0;points=[[0,0.5],[1,0.5]];portConstraint=eastwest;" vertex="1" parent="NTC3dTQ25wEKyzyMrCL0-25">
          <mxGeometry y="29" width="140" height="91" as="geometry" />
        </mxCell>
        <mxCell id="NTC3dTQ25wEKyzyMrCL0-28" value="Question" style="swimlane;fontStyle=1;align=center;verticalAlign=middle;childLayout=stackLayout;horizontal=1;startSize=29;horizontalStack=0;resizeParent=1;resizeParentMax=0;resizeLast=0;collapsible=0;marginBottom=0;html=1;" vertex="1" parent="1">
          <mxGeometry x="414" y="400" width="140" height="120" as="geometry" />
        </mxCell>
        <mxCell id="NTC3dTQ25wEKyzyMrCL0-29" value="name&lt;br&gt;description&lt;br&gt;number&lt;br&gt;tylpe" style="text;html=1;strokeColor=none;fillColor=none;align=center;verticalAlign=middle;spacingLeft=4;spacingRight=4;overflow=hidden;rotatable=0;points=[[0,0.5],[1,0.5]];portConstraint=eastwest;" vertex="1" parent="NTC3dTQ25wEKyzyMrCL0-28">
          <mxGeometry y="29" width="140" height="91" as="geometry" />
        </mxCell>
      </root>
    </mxGraphModel>
  </diagram>
</mxfile>
